<svg version="1.1" id="Layer_1" xmlns="http://www.w3.org/2000/svg" xmlns:xlink="http://www.w3.org/1999/xlink" x="0px" y="0px"
	 width="100%" viewBox="0 0 879 202" enable-background="new 0 0 879 202" xml:space="preserve">
<path fill="transparent" opacity="1.000000" stroke="none" 
	d="
M636.000000,203.000000 
	C424.048889,203.000000 212.597794,203.000000 1.073350,203.000000 
	C1.073350,135.731201 1.073350,68.462303 1.073350,1.096702 
	C293.999969,1.096702 587.000000,1.096702 879.971741,1.096702 
	C879.971741,68.402168 879.971741,135.701096 879.971741,203.000000 
	C798.795654,203.000000 717.647827,203.000000 636.000000,203.000000 
M508.799011,100.245644 
	C502.881348,116.635880 496.963715,133.026123 491.046051,149.416367 
	C490.559845,149.354401 490.073639,149.292435 489.587433,149.230469 
	C489.002838,147.771973 488.370270,146.330688 487.840759,144.852463 
	C475.182281,109.513405 462.563812,74.159920 449.793884,38.861229 
	C449.199768,37.218918 447.335327,34.946281 445.949921,34.864044 
	C439.027863,34.453148 432.068176,34.676064 425.008545,34.676064 
	C425.008545,80.014671 425.008545,124.872948 425.008545,169.782043 
	C429.898499,169.782043 434.491272,169.782043 439.522766,169.782043 
	C439.522766,133.438171 439.520660,97.312859 439.547577,61.187565 
	C439.547882,60.751446 439.900696,60.303879 440.134644,59.887295 
	C440.198761,59.773117 440.426025,59.743668 440.583618,59.690861 
	C440.733337,59.640690 440.889893,59.610825 441.537018,59.447308 
	C442.104950,60.852882 442.748108,62.311977 443.290833,63.807533 
	C454.509216,94.720482 465.698730,125.643936 476.944763,156.546799 
	C478.577606,161.033600 479.295227,167.184357 482.569824,169.372803 
	C485.921600,171.612808 491.896515,169.932831 496.723328,169.949066 
	C497.041809,169.950134 497.360901,169.784500 497.746887,169.677841 
	C511.272125,132.950729 524.129517,95.929665 537.851685,59.235538 
	C538.522400,59.407825 539.193115,59.580116 539.863831,59.752407 
	C539.863831,96.415901 539.863831,133.079391 539.863831,169.757538 
	C545.238464,169.757538 549.984924,169.757538 554.738525,169.757538 
	C554.738525,124.617455 554.738525,79.722626 554.738525,34.674267 
	C548.622864,34.674267 542.789978,34.870667 536.978882,34.600597 
	C533.493164,34.438599 531.837891,35.402740 530.609619,38.953381 
	C523.606018,59.200001 516.252502,79.325584 508.799011,100.245644 
M715.324341,141.216019 
	C718.497253,150.803864 721.670166,160.391693 724.744995,169.683044 
	C730.441711,169.683044 735.651550,169.683044 741.229858,169.683044 
	C736.557495,155.232101 732.075562,141.164001 727.451355,127.142807 
	C724.506775,118.214272 719.936462,110.479706 710.977844,106.227806 
	C710.656189,106.075142 710.577515,105.410629 710.237549,104.656242 
	C712.447449,103.730911 714.551392,102.888367 716.624329,101.975342 
	C725.778442,97.943321 732.387024,91.593239 734.982727,81.642754 
	C741.461609,56.806061 726.902832,36.243538 701.291321,35.084511 
	C684.166260,34.309528 666.985535,34.759449 649.829651,34.680775 
	C648.557678,34.674942 647.284851,34.827019 646.046509,34.903580 
	C646.046509,80.097763 646.046509,124.945976 646.046509,169.639023 
	C651.449463,169.639023 656.506226,169.639023 662.004517,169.639023 
	C662.004517,149.380859 662.004517,129.485519 662.004517,109.717430 
	C671.918091,109.717430 681.384460,109.492325 690.835083,109.782646 
	C699.748840,110.056473 705.784729,114.924126 709.018494,123.069275 
	C711.282043,128.770676 713.087341,134.653976 715.324341,141.216019 
M101.680679,61.779480 
	C100.416222,58.178307 99.181282,54.566429 97.880333,50.978481 
	C95.961952,45.687653 95.442673,38.284069 91.656876,35.713562 
	C87.625435,32.976261 80.469009,35.017818 74.705330,34.590515 
	C71.123734,34.324982 69.578979,35.569309 68.405884,38.995346 
	C58.728207,67.258995 48.828941,95.446785 38.993336,123.656342 
	C33.649586,138.982773 28.299065,154.306839 22.897707,169.786423 
	C28.777340,169.786423 34.222340,169.786423 39.639530,169.786423 
	C43.871368,157.376862 48.033108,145.172867 52.155231,133.085037 
	C71.571037,133.085037 90.532074,133.085037 109.729805,133.085037 
	C113.930679,145.437469 118.119080,157.753220 122.165955,169.652832 
	C128.186569,169.652832 133.543747,169.652832 139.230576,169.652832 
	C126.694374,133.663025 114.306343,98.098587 101.680679,61.779480 
M369.069489,84.499985 
	C369.051453,97.998398 369.325439,111.505394 368.929230,124.992699 
	C368.568878,137.257263 364.750824,148.070282 352.648560,153.736832 
	C324.909119,166.725082 300.100891,151.136658 299.972137,120.768112 
	C299.968597,119.934891 299.971069,119.101631 299.971069,118.268394 
	C299.970978,92.271339 299.970978,66.274277 299.970978,40.277222 
	C299.970978,38.492737 299.971008,36.708256 299.971008,35.019894 
	C294.374451,35.019894 289.321411,35.019894 284.178253,35.019894 
	C284.178253,66.177818 284.159424,96.987190 284.216095,127.796417 
	C284.220367,130.110611 284.719879,132.430206 285.062134,134.736481 
	C287.844971,153.488174 299.163086,165.822479 317.554840,170.127975 
	C328.096466,172.595734 338.730408,172.688446 349.306488,170.648865 
	C368.106415,167.023315 379.789246,155.842651 383.550079,136.956482 
	C384.551086,131.929565 384.914551,126.703758 384.938873,121.566269 
	C385.069855,93.903351 385.005463,66.239487 384.990234,38.575958 
	C384.989532,37.305264 384.813660,36.034672 384.729401,34.899216 
	C379.403931,34.899216 374.452850,34.899216 369.069489,34.899216 
	C369.069489,51.248955 369.069489,67.374474 369.069489,84.499985 
M800.754639,33.023880 
	C798.286194,33.383579 795.793396,33.624210 793.353149,34.122234 
	C777.185791,37.421860 765.701294,48.438961 763.999573,62.203350 
	C761.893738,79.235397 768.612610,92.393684 783.633362,99.537148 
	C788.687012,101.940567 794.227783,103.355782 799.604065,105.036804 
	C809.094177,108.004143 818.867981,110.226952 828.076599,113.885208 
	C837.002197,117.431068 840.141602,125.369530 839.737549,134.625366 
	C839.334717,143.853317 835.291565,150.886337 826.544556,154.671082 
	C810.503906,161.611679 788.030701,156.743118 776.302612,143.895416 
	C773.948242,141.316330 771.435364,138.881882 768.995544,136.380753 
	C766.569031,139.090012 764.275330,141.935959 761.673401,144.464645 
	C759.642944,146.437958 759.746033,148.399902 761.507629,150.017715 
	C767.080383,155.135605 772.199890,161.209595 778.669006,164.795074 
	C793.359619,172.937256 809.477173,173.838074 825.712891,170.165833 
	C843.666077,166.105118 854.622986,153.999329 855.932373,137.483109 
	C857.487366,117.869171 849.607971,105.018433 831.021790,97.916771 
	C824.382996,95.380119 817.292480,94.047951 810.469055,91.966248 
	C803.346619,89.793343 796.011353,88.001221 789.292053,84.907104 
	C781.648743,81.387474 779.342957,74.221619 779.637146,66.127045 
	C779.912476,58.552338 783.407104,52.698711 790.359436,50.096264 
	C805.711548,44.349503 820.807861,44.948326 834.485474,54.857632 
	C842.820740,60.896500 842.492310,61.130596 848.659302,52.628445 
	C850.310791,50.351616 850.326416,48.616871 848.225342,47.200169 
	C842.502686,43.341526 837.072083,38.067101 830.718018,36.359875 
	C821.414856,33.860252 811.408325,33.978477 800.754639,33.023880 
M159.361465,47.143894 
	C170.227783,64.861267 181.094101,82.578644 192.008682,100.374702 
	C178.030411,123.449005 164.111389,146.425491 149.826508,170.005905 
	C155.004425,170.005905 159.457306,169.807632 163.881485,170.078247 
	C166.655197,170.247910 167.955826,169.084564 169.309677,166.855621 
	C179.757462,149.654739 190.347763,132.540375 200.898926,115.402306 
	C204.243820,109.969246 204.643219,109.959167 207.972046,115.379402 
	C218.417114,132.386856 228.809235,149.427094 239.340897,166.380661 
	C240.263306,167.865540 241.979919,169.713547 243.460022,169.839676 
	C248.504379,170.269547 253.607971,170.004166 259.366089,170.004166 
	C258.150238,167.964066 257.332947,166.574036 256.498077,165.194641 
	C244.269714,144.990753 232.118423,124.739334 219.724945,104.637230 
	C217.823166,101.552567 217.631348,99.499306 219.630112,96.308655 
	C231.461304,77.422287 243.004303,58.355316 254.629150,39.339870 
	C255.459488,37.981678 256.169342,36.549858 257.200562,34.668068 
	C252.615173,34.668068 248.615845,34.907009 244.660172,34.594002 
	C241.375565,34.334091 239.616241,35.592529 237.927551,38.338627 
	C228.256180,54.065819 218.378433,69.666115 208.567337,85.307350 
	C204.991745,91.007698 204.574524,91.018318 201.145462,85.474449 
	C191.433990,69.773468 181.754486,54.052559 171.976944,38.392849 
	C171.085495,36.965111 169.655243,34.968166 168.347290,34.865543 
	C163.153900,34.458069 157.909714,34.697903 151.839752,34.697903 
	C154.574249,39.208588 156.787643,42.859661 159.361465,47.143894 
M595.732483,149.879120 
	C589.392883,153.379440 587.184082,159.397141 590.090027,165.251755 
	C592.641296,170.391724 599.839844,172.548187 605.717529,169.933334 
	C611.000977,167.582855 613.366394,161.301941 611.114685,155.602325 
	C609.004089,150.260010 604.069397,148.242249 595.732483,149.879120 
z"/>
<path fill="#FDFDFD" opacity="1.000000" stroke="none" 
	d="
M508.908447,99.868973 
	C516.252502,79.325584 523.606018,59.200001 530.609619,38.953381 
	C531.837891,35.402740 533.493164,34.438599 536.978882,34.600597 
	C542.789978,34.870667 548.622864,34.674267 554.738525,34.674267 
	C554.738525,79.722626 554.738525,124.617455 554.738525,169.757538 
	C549.984924,169.757538 545.238464,169.757538 539.863831,169.757538 
	C539.863831,133.079391 539.863831,96.415901 539.863831,59.752407 
	C539.193115,59.580116 538.522400,59.407825 537.851685,59.235538 
	C524.129517,95.929665 511.272125,132.950729 497.746887,169.677841 
	C497.360901,169.784500 497.041809,169.950134 496.723328,169.949066 
	C491.896515,169.932831 485.921600,171.612808 482.569824,169.372803 
	C479.295227,167.184357 478.577606,161.033600 476.944763,156.546799 
	C465.698730,125.643936 454.509216,94.720482 443.290833,63.807533 
	C442.748108,62.311977 442.104950,60.852882 441.537018,59.447308 
	C440.889893,59.610825 440.733337,59.640690 440.583618,59.690861 
	C440.426025,59.743668 440.198761,59.773117 440.134644,59.887295 
	C439.900696,60.303879 439.547882,60.751446 439.547577,61.187565 
	C439.520660,97.312859 439.522766,133.438171 439.522766,169.782043 
	C434.491272,169.782043 429.898499,169.782043 425.008545,169.782043 
	C425.008545,124.872948 425.008545,80.014671 425.008545,34.676064 
	C432.068176,34.676064 439.027863,34.453148 445.949921,34.864044 
	C447.335327,34.946281 449.199768,37.218918 449.793884,38.861229 
	C462.563812,74.159920 475.182281,109.513405 487.840759,144.852463 
	C488.370270,146.330688 489.002838,147.771973 489.587433,149.230469 
	C490.073639,149.292435 490.559845,149.354401 491.046051,149.416367 
	C496.963715,133.026123 502.881348,116.635880 508.908447,99.868973 
z"/>
<path fill="#FBFBFB" opacity="1.000000" stroke="none" 
	d="
M715.210815,140.836029 
	C713.087341,134.653976 711.282043,128.770676 709.018494,123.069275 
	C705.784729,114.924126 699.748840,110.056473 690.835083,109.782646 
	C681.384460,109.492325 671.918091,109.717430 662.004517,109.717430 
	C662.004517,129.485519 662.004517,149.380859 662.004517,169.639023 
	C656.506226,169.639023 651.449463,169.639023 646.046509,169.639023 
	C646.046509,124.945976 646.046509,80.097763 646.046509,34.903580 
	C647.284851,34.827019 648.557678,34.674942 649.829651,34.680775 
	C666.985535,34.759449 684.166260,34.309528 701.291321,35.084511 
	C726.902832,36.243538 741.461609,56.806061 734.982727,81.642754 
	C732.387024,91.593239 725.778442,97.943321 716.624329,101.975342 
	C714.551392,102.888367 712.447449,103.730911 710.237549,104.656242 
	C710.577515,105.410629 710.656189,106.075142 710.977844,106.227806 
	C719.936462,110.479706 724.506775,118.214272 727.451355,127.142807 
	C732.075562,141.164001 736.557495,155.232101 741.229858,169.683044 
	C735.651550,169.683044 730.441711,169.683044 724.744995,169.683044 
	C721.670166,160.391693 718.497253,150.803864 715.210815,140.836029 
M661.760620,81.495049 
	C661.760620,86.107819 661.760620,90.720589 661.760620,95.310265 
	C674.831238,95.310265 687.460510,95.959038 699.991638,95.128120 
	C712.567505,94.294235 718.500000,87.326500 719.294434,74.672287 
	C719.470459,71.868843 719.348145,69.010155 719.016602,66.218056 
	C717.919495,56.978363 712.102295,49.849892 702.857971,49.248684 
	C689.347351,48.370007 675.737122,49.022743 661.760620,49.022743 
	C661.760620,59.276600 661.760620,69.886414 661.760620,81.495049 
z"/>
<path fill="#FAFAFA" opacity="1.000000" stroke="none" 
	d="
M101.799500,62.156818 
	C114.306343,98.098587 126.694374,133.663025 139.230576,169.652832 
	C133.543747,169.652832 128.186569,169.652832 122.165955,169.652832 
	C118.119080,157.753220 113.930679,145.437469 109.729805,133.085037 
	C90.532074,133.085037 71.571037,133.085037 52.155231,133.085037 
	C48.033108,145.172867 43.871368,157.376862 39.639530,169.786423 
	C34.222340,169.786423 28.777340,169.786423 22.897707,169.786423 
	C28.299065,154.306839 33.649586,138.982773 38.993336,123.656342 
	C48.828941,95.446785 58.728207,67.258995 68.405884,38.995346 
	C69.578979,35.569309 71.123734,34.324982 74.705330,34.590515 
	C80.469009,35.017818 87.625435,32.976261 91.656876,35.713562 
	C95.442673,38.284069 95.961952,45.687653 97.880333,50.978481 
	C99.181282,54.566429 100.416222,58.178307 101.799500,62.156818 
M89.447609,73.031105 
	C86.919846,65.618385 84.392082,58.205662 81.864319,50.792942 
	C81.244324,50.780014 80.624329,50.767082 80.004326,50.754154 
	C72.284874,73.459503 64.565430,96.164856 56.712883,119.261673 
	C73.097038,119.261673 88.836700,119.261673 105.041412,119.261673 
	C99.877502,103.866814 94.826935,88.809898 89.447609,73.031105 
z"/>
<path fill="#FCFCFC" opacity="1.000000" stroke="none" 
	d="
M369.069489,83.999985 
	C369.069489,67.374474 369.069489,51.248955 369.069489,34.899216 
	C374.452850,34.899216 379.403931,34.899216 384.729401,34.899216 
	C384.813660,36.034672 384.989532,37.305264 384.990234,38.575958 
	C385.005463,66.239487 385.069855,93.903351 384.938873,121.566269 
	C384.914551,126.703758 384.551086,131.929565 383.550079,136.956482 
	C379.789246,155.842651 368.106415,167.023315 349.306488,170.648865 
	C338.730408,172.688446 328.096466,172.595734 317.554840,170.127975 
	C299.163086,165.822479 287.844971,153.488174 285.062134,134.736481 
	C284.719879,132.430206 284.220367,130.110611 284.216095,127.796417 
	C284.159424,96.987190 284.178253,66.177818 284.178253,35.019894 
	C289.321411,35.019894 294.374451,35.019894 299.971008,35.019894 
	C299.971008,36.708256 299.970978,38.492737 299.970978,40.277222 
	C299.970978,66.274277 299.970978,92.271339 299.971069,118.268394 
	C299.971069,119.101631 299.968597,119.934891 299.972137,120.768112 
	C300.100891,151.136658 324.909119,166.725082 352.648560,153.736832 
	C364.750824,148.070282 368.568878,137.257263 368.929230,124.992699 
	C369.325439,111.505394 369.051453,97.998398 369.069489,83.999985 
z"/>
<path fill="#FAFAFA" opacity="1.000000" stroke="none" 
	d="
M801.228088,33.002480 
	C811.408325,33.978477 821.414856,33.860252 830.718018,36.359875 
	C837.072083,38.067101 842.502686,43.341526 848.225342,47.200169 
	C850.326416,48.616871 850.310791,50.351616 848.659302,52.628445 
	C842.492310,61.130596 842.820740,60.896500 834.485474,54.857632 
	C820.807861,44.948326 805.711548,44.349503 790.359436,50.096264 
	C783.407104,52.698711 779.912476,58.552338 779.637146,66.127045 
	C779.342957,74.221619 781.648743,81.387474 789.292053,84.907104 
	C796.011353,88.001221 803.346619,89.793343 810.469055,91.966248 
	C817.292480,94.047951 824.382996,95.380119 831.021790,97.916771 
	C849.607971,105.018433 857.487366,117.869171 855.932373,137.483109 
	C854.622986,153.999329 843.666077,166.105118 825.712891,170.165833 
	C809.477173,173.838074 793.359619,172.937256 778.669006,164.795074 
	C772.199890,161.209595 767.080383,155.135605 761.507629,150.017715 
	C759.746033,148.399902 759.642944,146.437958 761.673401,144.464645 
	C764.275330,141.935959 766.569031,139.090012 768.995544,136.380753 
	C771.435364,138.881882 773.948242,141.316330 776.302612,143.895416 
	C788.030701,156.743118 810.503906,161.611679 826.544556,154.671082 
	C835.291565,150.886337 839.334717,143.853317 839.737549,134.625366 
	C840.141602,125.369530 837.002197,117.431068 828.076599,113.885208 
	C818.867981,110.226952 809.094177,108.004143 799.604065,105.036804 
	C794.227783,103.355782 788.687012,101.940567 783.633362,99.537148 
	C768.612610,92.393684 761.893738,79.235397 763.999573,62.203350 
	C765.701294,48.438961 777.185791,37.421860 793.353149,34.122234 
	C795.793396,33.624210 798.286194,33.383579 801.228088,33.002480 
z"/>
<path fill="#FBFBFB" opacity="1.000000" stroke="none" 
	d="
M159.181244,46.827316 
	C156.787643,42.859661 154.574249,39.208588 151.839752,34.697903 
	C157.909714,34.697903 163.153900,34.458069 168.347290,34.865543 
	C169.655243,34.968166 171.085495,36.965111 171.976944,38.392849 
	C181.754486,54.052559 191.433990,69.773468 201.145462,85.474449 
	C204.574524,91.018318 204.991745,91.007698 208.567337,85.307350 
	C218.378433,69.666115 228.256180,54.065819 237.927551,38.338627 
	C239.616241,35.592529 241.375565,34.334091 244.660172,34.594002 
	C248.615845,34.907009 252.615173,34.668068 257.200562,34.668068 
	C256.169342,36.549858 255.459488,37.981678 254.629150,39.339870 
	C243.004303,58.355316 231.461304,77.422287 219.630112,96.308655 
	C217.631348,99.499306 217.823166,101.552567 219.724945,104.637230 
	C232.118423,124.739334 244.269714,144.990753 256.498077,165.194641 
	C257.332947,166.574036 258.150238,167.964066 259.366089,170.004166 
	C253.607971,170.004166 248.504379,170.269547 243.460022,169.839676 
	C241.979919,169.713547 240.263306,167.865540 239.340897,166.380661 
	C228.809235,149.427094 218.417114,132.386856 207.972046,115.379402 
	C204.643219,109.959167 204.243820,109.969246 200.898926,115.402306 
	C190.347763,132.540375 179.757462,149.654739 169.309677,166.855621 
	C167.955826,169.084564 166.655197,170.247910 163.881485,170.078247 
	C159.457306,169.807632 155.004425,170.005905 149.826508,170.005905 
	C164.111389,146.425491 178.030411,123.449005 192.008682,100.374702 
	C181.094101,82.578644 170.227783,64.861267 159.181244,46.827316 
z"/>
<path fill="#F9F9F9" opacity="1.000000" stroke="none" 
	d="
M596.111206,149.750732 
	C604.069397,148.242249 609.004089,150.260010 611.114685,155.602325 
	C613.366394,161.301941 611.000977,167.582855 605.717529,169.933334 
	C599.839844,172.548187 592.641296,170.391724 590.090027,165.251755 
	C587.184082,159.397141 589.392883,153.379440 596.111206,149.750732 
z"/>
<path fill="#030303" opacity="1.000000" stroke="none" 
	d="
M661.760620,80.995636 
	C661.760620,69.886414 661.760620,59.276600 661.760620,49.022743 
	C675.737122,49.022743 689.347351,48.370007 702.857971,49.248684 
	C712.102295,49.849892 717.919495,56.978363 719.016602,66.218056 
	C719.348145,69.010155 719.470459,71.868843 719.294434,74.672287 
	C718.500000,87.326500 712.567505,94.294235 699.991638,95.128120 
	C687.460510,95.959038 674.831238,95.310265 661.760620,95.310265 
	C661.760620,90.720589 661.760620,86.107819 661.760620,80.995636 
z"/>
<path fill="#030303" opacity="1.000000" stroke="none" 
	d="
M89.611992,73.392044 
	C94.826935,88.809898 99.877502,103.866814 105.041412,119.261673 
	C88.836700,119.261673 73.097038,119.261673 56.712883,119.261673 
	C64.565430,96.164856 72.284874,73.459503 80.004326,50.754154 
	C80.624329,50.767082 81.244324,50.780014 81.864319,50.792942 
	C84.392082,58.205662 86.919846,65.618385 89.611992,73.392044 
z"/>
</svg>