<?xml version="1.0" encoding="utf-8"?><!-- Uploaded to: SVG Repo, www.svgrepo.com, Generator: SVG Repo Mixer Tools -->
<svg width="800px" height="800px" viewBox="0 0 64 64" fill="none" xmlns="http://www.w3.org/2000/svg"><path d="M 60.8 30.3 l -2.5 -1.4 C 58.3 28.7 58.3 28.5 58.3 28.2 l 2.1 -1.8 C 60.6 26.2 60.7 25.9 60.6 25.7 C 60.6 25.4 60.4 25.2 60.1 25.1 l -2.7 -0.9 C 57.3 23.9 57.3 23.7 57.2 23.5 l 1.7 -2.2 C 59 21.1 59.1 20.8 59 20.5 C 58.9 20.3 58.6 20.1 58.3 20 l -2.9 -0.4 c -0.1 -0.2 -0.2 -0.4 -0.3 -0.6 l 1.2 -2.5 C 56.5 16.3 56.4 16 56.3 15.8 C 56.1 15.5 55.8 15.4 55.5 15.4 l -2.9 0.1 C 52.5 15.3 52.3 15.2 52.2 15 l 0.7 -2.6 C 52.9 12.1 52.8 11.8 52.6 11.6 C 52.4 11.4 52.1 11.4 51.8 11.4 l -2.8 0.6 c -0.2 -0.1 -0.4 -0.3 -0.6 -0.4 l 0.1 -2.7 C 48.6 8.6 48.4 8.4 48.2 8.2 C 47.9 8.1 47.6 8 47.4 8.2 l -2.6 1.1 C 44.5 9.2 44.3 9.1 44.1 9 l -0.5 -2.7 C 43.6 6 43.4 5.8 43.1 5.7 C 42.8 5.6 42.5 5.6 42.3 5.8 l -2.3 1.6 C 39.7 7.3 39.5 7.2 39.3 7.2 l -1 -2.5 C 38.1 4.4 37.9 4.2 37.6 4.1 C 37.3 4.1 37 4.2 36.8 4.4 l -2 2 c -0.2 0 -0.5 0 -0.7 -0.1 l -1.5 -2.3 C 32.5 3.7 32.2 3.6 31.9 3.6 C 31.6 3.6 31.3 3.7 31.2 4 l -1.5 2.3 c -0.2 0 -0.5 0 -0.7 0.1 l -2 -2 C 26.8 4.2 26.5 4.1 26.2 4.1 C 25.9 4.2 25.7 4.4 25.6 4.6 l -1 2.5 c -0.2 0.1 -0.5 0.1 -0.7 0.2 l -2.3 -1.6 C 21.3 5.6 21 5.6 20.7 5.7 C 20.4 5.8 20.2 6 20.2 6.3 l -0.5 2.7 c -0.2 0.1 -0.4 0.2 -0.6 0.3 l -2.6 -1.1 C 16.2 8 15.9 8.1 15.6 8.2 C 15.4 8.4 15.2 8.6 15.2 8.9 l 0.1 2.7 c -0.2 0.1 -0.4 0.3 -0.6 0.4 l -2.8 -0.6 C 11.7 11.4 11.4 11.4 11.2 11.6 C 11 11.8 10.9 12.1 11 12.4 l 0.7 2.6 c -0.2 0.2 -0.3 0.3 -0.5 0.5 l -2.9 -0.1 C 8 15.4 7.7 15.5 7.5 15.8 C 7.4 16 7.3 16.3 7.5 16.5 l 1.2 2.5 c -0.1 0.2 -0.2 0.4 -0.3 0.6 l -2.8 0.4 C 5.2 20.1 4.9 20.3 4.8 20.5 C 4.7 20.8 4.8 21.1 4.9 21.3 l 1.7 2.2 c -0.1 0.2 -0.1 0.4 -0.2 0.7 l -2.7 0.9 C 3.4 25.2 3.2 25.4 3.2 25.7 C 3.1 25.9 3.2 26.2 3.4 26.4 l 2.1 1.8 c 0 0.2 -0.1 0.4 -0.1 0.7 l -2.5 1.4 C 2.8 30.5 2.6 30.7 2.6 31 C 2.6 31.3 2.8 31.5 3 31.7 l 2.5 1.4 c 0 0.2 0 0.4 0.1 0.7 l -2.1 1.8 C 3.2 35.8 3.1 36.1 3.2 36.3 C 3.2 36.6 3.4 36.8 3.7 36.9 l 2.7 0.9 c 0.1 0.2 0.1 0.4 0.2 0.7 l -1.7 2.2 C 4.8 40.9 4.7 41.2 4.8 41.5 C 4.9 41.7 5.2 41.9 5.5 42 l 2.8 0.4 c 0.1 0.2 0.2 0.4 0.3 0.6 l -1.2 2.5 C 7.3 45.7 7.4 46 7.5 46.2 C 7.7 46.5 8 46.6 8.3 46.6 l 2.9 -0.1 c 0.2 0.2 0.3 0.3 0.5 0.5 l -0.7 2.6 C 10.9 49.9 11 50.2 11.2 50.4 C 11.4 50.6 11.7 50.7 12 50.6 l 2.8 -0.6 c 0.2 0.1 0.4 0.3 0.6 0.4 l -0.1 2.7 C 15.2 53.4 15.4 53.6 15.6 53.8 C 15.9 53.9 16.2 54 16.4 53.8 l 2.6 -1.1 c 0.2 0.1 0.4 0.2 0.6 0.3 l 0.5 2.7 C 20.2 56 20.4 56.2 20.7 56.3 C 21 56.4 21.3 56.4 21.5 56.2 l 2.3 -1.6 c 0.2 0.1 0.5 0.1 0.7 0.2 l 1 2.5 C 25.7 57.6 25.9 57.8 26.2 57.9 C 26.5 57.9 26.8 57.8 27 57.6 l 2 -2 c 0.2 0 0.5 0 0.7 0.1 l 1.5 2.3 C 31.3 58.3 31.6 58.4 31.9 58.4 C 32.2 58.4 32.5 58.3 32.6 58 l 1.5 -2.3 c 0.2 0 0.5 0 0.7 -0.1 l 2 2 C 37 57.8 37.3 57.9 37.6 57.9 C 37.9 57.8 38.1 57.6 38.2 57.4 l 1 -2.5 c 0.2 -0.1 0.5 -0.1 0.7 -0.2 l 2.3 1.6 C 42.5 56.4 42.8 56.4 43.1 56.3 C 43.4 56.2 43.6 56 43.6 55.7 l 0.5 -2.7 c 0.2 -0.1 0.4 -0.2 0.6 -0.3 l 2.6 1.1 C 47.6 54 47.9 53.9 48.2 53.8 C 48.4 53.6 48.6 53.4 48.6 53.1 l -0.1 -2.7 c 0.2 -0.1 0.4 -0.3 0.6 -0.4 l 2.8 0.6 C 52.1 50.7 52.4 50.6 52.6 50.4 C 52.8 50.2 52.9 49.9 52.8 49.6 l -0.7 -2.6 c 0.2 -0.2 0.3 -0.3 0.5 -0.5 l 2.9 0.1 C 55.8 46.6 56.1 46.5 56.3 46.2 C 56.4 46 56.5 45.7 56.3 45.5 l -1.2 -2.5 c 0.1 -0.2 0.2 -0.4 0.3 -0.6 l 2.8 -0.4 C 58.6 41.9 58.9 41.7 59 41.5 C 59.1 41.2 59 40.9 58.9 40.7 l -1.7 -2.2 C 57.3 38.3 57.3 38.1 57.4 37.9 l 2.7 -0.9 C 60.4 36.8 60.6 36.6 60.6 36.3 C 60.7 36.1 60.6 35.8 60.4 35.6 l -2.1 -1.8 c 0 -0.2 0 -0.4 0.1 -0.7 l 2.5 -1.4 C 61 31.5 61.2 31.3 61.2 31 C 61.2 30.7 61 30.5 60.8 30.3 z M 44.3 49.4 C 43.4 49.2 42.8 48.4 43 47.5 C 43.2 46.6 44.1 46.1 45.1 46.2 C 46 46.4 46.6 47.3 46.4 48.2 C 46.2 49 45.3 49.6 44.3 49.4 z m -0.8 -5.3 C 43.1 44 42.7 44.1 42.3 44.3 C 42 44.5 41.7 44.9 41.6 45.3 l -0.9 3.8 C 38 50.3 34.9 50.9 31.9 50.9 c -3.2 0 -6.3 -0.7 -9 -1.9 l -0.9 -3.8 C 21.9 44.8 21.7 44.5 21.3 44.3 C 21 44 20.5 44 20.1 44 l -3.6 0.7 C 15.9 44.1 15.2 43.4 14.7 42.7 h 17.5 c 0.2 0 0.3 0 0.3 -0.2 v -5.8 c 0 -0.2 -0.1 -0.2 -0.3 -0.2 H 27 V 32.8 h 5.5 c 0.5 0 2.7 0.1 3.4 2.8 c 0.2 0.8 0.7 3.4 1 4.3 c 0.3 0.9 1.7 2.8 3.1 2.8 h 8.7 C 49 42.7 49.1 42.7 49.2 42.7 c -0.6 0.8 -1.3 1.5 -2 2.2 l -3.7 -0.7 z m -24.2 5.2 C 18.4 49.5 17.5 48.9 17.3 48.1 C 17.1 47.2 17.6 46.4 18.6 46.1 C 19.5 46 20.4 46.5 20.6 47.4 C 20.8 48.3 20.2 49.1 19.3 49.3 z m -6.6 -25.2 C 13 25 12.6 25.9 11.8 26.3 C 10.9 26.7 9.8 26.3 9.5 25.5 C 9.2 24.9 9.3 24.3 9.6 23.8 C 10 23.4 10.6 23.1 11.2 23.2 C 11.9 23.3 12.4 23.6 12.6 24.1 z m -2 4.5 l 3.7 -1.6 C 15.1 26.8 15.5 25.9 15.2 25.2 l -0.8 -1.6 h 3 v 12.8 h -6.1 C 10.5 33.8 10.3 31.2 10.6 28.7 z m 16.5 -1.2 v -3.8 h 7.2 c 0.4 0 2.6 0.4 2.6 2 c 0 1.3 -1.7 1.8 -3.2 1.8 h -6.7 z M 53.3 30.8 c 0 0.5 0 1 -0.1 1.5 h -2.2 c -0.2 0 -0.3 0.1 -0.3 0.3 v 0.9 c 0 2.2 -1.3 2.7 -2.5 2.8 c -1.1 0.1 -2.4 -0.4 -2.5 -1.1 c -0.7 -3.5 -1.8 -4.2 -3.5 -5.5 c 2.2 -1.3 4.4 -3.2 4.4 -5.7 c 0 -2.7 -2 -4.4 -3.4 -5.3 c -1.9 -1.2 -4 -1.4 -4.6 -1.4 H 15.9 C 19.1 14.2 23.3 12 27.9 11.1 l 2.7 2.6 c 0.6 0.6 1.6 0.6 2.2 0 l 3 -2.7 C 42 12.2 47.4 15.8 50.5 20.9 l -2.1 4.3 C 48.1 26 48.5 26.9 49.3 27.2 l 4 1.6 c 0.1 0.7 0.1 1.3 0.1 2 z M 30.6 8.9 C 30.9 8.6 31.4 8.4 31.8 8.4 C 32.3 8.5 32.7 8.6 33.1 8.9 C 33.4 9.3 33.6 9.7 33.5 10.1 C 33.5 10.5 33.3 11 33 11.3 C 32.7 11.6 32.2 11.7 31.8 11.7 C 31.3 11.7 30.9 11.5 30.6 11.2 C 29.9 10.5 29.9 9.5 30.6 8.9 z m 20.4 15.3 C 51.4 23.4 52.4 23 53.3 23.4 C 54.2 23.8 54.5 24.7 54.2 25.5 C 53.8 26.4 52.7 26.7 51.9 26.4 C 51 26 50.6 25 51 24.2 z" fill="rgb(169, 165, 165)"/></svg>