<svg height="1024pt" viewBox="5 2 1023 1024.1" width="1024pt" xmlns="http://www.w3.org/2000/svg"><path fill="rgb(255, 255, 255)" d="M 478.5 0.6 c -2.2 0.2 -9.2 0.9 -15.5 1.4 c -145.3 13.1 -281.4 91.5 -367.6 212 c -48 67 -78.7 143 -90.3 223.5 c -4.1 28.1 -4.6 36.4 -4.6 74.5 s 0.5 46.4 4.6 74.5 c 27.8 192.1 164.5 353.5 349.9 413.3 c 33.2 10.7 68.2 18 108 22.4 c 15.5 1.7 82.5 1.7 98 0 c 68.7 -7.6 126.9 -24.6 184.3 -53.9 c 8.8 -4.5 10.5 -5.7 9.3 -6.7 c -0.8 -0.6 -38.3 -50.9 -83.3 -111.7 l -81.8 -110.5 l -102.5 -151.7 c -56.4 -83.4 -102.8 -151.6 -103.2 -151.6 c -0.4 -0.1 -0.8 67.3 -1 149.6 c -0.3 144.1 -0.4 149.9 -2.2 153.3 c -2.6 4.9 -4.6 6.9 -8.8 9.1 c -3.2 1.6 -6 1.9 -21.1 1.9 h -17.3 l -4.6 -2.9 c -3 -1.9 -5.2 -4.4 -6.7 -7.3 l -2.1 -4.5 l 0.2 -200.5 l 0.3 -200.6 l 3.1 -3.9 c 1.6 -2.1 5 -4.8 7.4 -6.1 c 4.1 -2 5.7 -2.2 23 -2.2 c 20.4 0 23.8 0.8 29.1 6.6 c 1.5 1.6 57 85.2 123.4 185.9 s 157.2 238.2 201.8 305.7 l 81 122.7 l 4.1 -2.7 c 36.3 -23.6 74.7 -57.2 105.1 -92.2 c 64.7 -74.3 106.4 -164.9 120.4 -261.5 c 4.1 -28.1 4.6 -36.4 4.6 -74.5 s -0.5 -46.4 -4.6 -74.5 c -27.8 -192.1 -164.5 -353.5 -349.9 -413.3 c -32.7 -10.6 -67.5 -17.9 -106.5 -22.3 c -9.6 -1 -75.7 -2.1 -84 -1.3 z m 209.4 309.4 c 4.8 2.4 8.7 7 10.1 11.8 c 0.8 2.6 1 58.2 0.8 183.5 l -0.3 179.8 l -31.7 -48.6 l -31.8 -48.6 v -130.7 c 0 -84.5 0.4 -132 1 -134.3 c 1.6 -5.6 5.1 -10 9.9 -12.6 c 4.1 -2.1 5.6 -2.3 21.3 -2.3 c 14.8 0 17.4 0.2 20.7 2 z"/><path d="M 784.3 945.1 c -3.5 2.2 -4.6 3.7 -1.5 2 c 2.2 -1.3 5.8 -4 5.2 -4.1 c -0.3 0 -2 1 -3.7 2.1 z m -6.9 4.5 c -1.8 1.4 -1.8 1.5 0.4 0.4 c 1.2 -0.6 2.2 -1.3 2.2 -1.5 c 0 -0.8 -0.5 -0.6 -2.6 1.1 z m -5 3 c -1.8 1.4 -1.8 1.5 0.4 0.4 c 1.2 -0.6 2.2 -1.3 2.2 -1.5 c 0 -0.8 -0.5 -0.6 -2.6 1.1 z m -5 3 c -1.8 1.4 -1.8 1.5 0.4 0.4 c 1.2 -0.6 2.2 -1.3 2.2 -1.5 c 0 -0.8 -0.5 -0.6 -2.6 1.1 z m -7.6 4 c -3.8 2 -3.6 2.8 0.2 0.9 c 1.7 -0.9 3 -1.8 3 -2 c 0 -0.7 -0.1 -0.6 -3.2 1.1 z"/></svg>