<svg height="1499" viewBox="15 13 799.7 479.69" width="2500" xmlns="http://www.w3.org/2000/svg"><path d="M 400 0.1 c -106.6 0 -173.3 53.3 -199.9 159.9 c 40 -53.3 86.6 -73.3 139.9 -60 c 30.4 7.6 52.2 29.7 76.2 54.1 c 39.2 39.8 84.6 85.8 183.7 85.8 c 106.6 0 173.3 -53.3 199.9 -159.9 c -40 53.3 -86.6 73.3 -139.9 60 c -30.4 -7.6 -52.1 -29.7 -76.2 -54.1 c -39.2 -39.8 -84.6 -85.8 -183.7 -85.8 z m -199.9 239.8 c -106.6 0 -173.3 53.3 -199.9 159.9 c 40 -53.3 86.6 -73.3 139.9 -60 c 30.4 7.6 52.1 29.7 76.2 54.1 c 39.2 39.8 84.6 85.8 183.7 85.8 c 106.6 0 173.3 -53.3 199.9 -159.9 c -40 53.3 -86.6 73.3 -139.9 60 c -30.4 -7.6 -52.2 -29.7 -76.2 -54.1 c -39.2 -39.8 -84.6 -85.8 -183.7 -85.8 z" fill="#06b6d4"/></svg>